<?xml version="1.0" standalone="no"?>
<!DOCTYPE svg PUBLIC "-//W3C//DTD SVG 20010904//EN"
 "http://www.w3.org/TR/2001/REC-SVG-20010904/DTD/svg10.dtd">
<svg version="1.0" xmlns="http://www.w3.org/2000/svg"
 width="1024.000000pt" height="1024.000000pt" viewBox="0 0 1024.000000 1024.000000"
 preserveAspectRatio="xMidYMid meet">

<g transform="translate(0.000000,1024.000000) scale(0.100000,-0.100000)"
fill="#000000" stroke="none">
<path d="M4 5123 c3 -2815 6 -5119 6 -5120 0 -2 556 -3 1235 -3 l1235 0 0 40
c0 33 3 40 20 40 17 0 20 -7 20 -40 l0 -40 183 1 c106 1 167 5 147 9 l-35 7
45 2 c44 2 45 2 20 16 -14 8 -19 14 -12 15 6 0 12 7 12 15 0 11 11 15 40 15
l40 0 0 -40 0 -40 40 0 c37 0 40 2 40 28 0 16 8 34 20 42 16 12 20 26 20 72
l0 58 40 0 c33 0 40 3 40 20 0 17 -7 20 -40 20 -34 0 -40 3 -40 21 0 18 6 20
43 19 60 -3 64 -1 43 15 -16 12 -17 18 -7 28 10 9 14 8 22 -6 14 -24 27 -13
21 18 -4 23 -2 25 37 25 34 0 41 3 41 20 0 19 7 20 114 20 129 0 126 -2 126
86 0 47 -2 54 -20 54 -42 0 -100 25 -100 42 0 11 -8 18 -20 18 -13 0 -20 -7
-20 -20 0 -13 -7 -20 -20 -20 -17 0 -20 7 -20 40 0 33 -3 40 -20 40 -17 0 -20
-7 -20 -40 0 -33 -3 -40 -20 -40 -17 0 -20 7 -20 40 0 33 -3 40 -20 40 -18 0
-20 7 -20 60 l0 60 40 0 c33 0 40 3 40 20 0 19 7 20 120 20 115 0 120 -1 120
-21 0 -16 4 -19 18 -14 34 15 60 17 66 6 4 -6 23 -11 42 -11 27 0 34 4 34 20
0 18 7 20 60 20 55 0 60 2 60 21 0 19 4 21 40 16 22 -3 40 -1 40 4 0 5 -13 9
-30 9 -16 0 -30 5 -30 10 0 6 12 10 28 10 30 0 59 15 45 23 -5 3 -15 2 -23 -4
-20 -12 -30 -11 -30 1 0 6 6 10 14 10 8 0 18 10 22 22 6 21 7 21 21 2 20 -28
37 -24 44 11 l6 30 2 -32 c1 -28 5 -33 26 -33 14 0 25 5 25 10 0 6 60 10 160
10 130 0 160 3 160 14 0 16 21 26 57 26 19 0 24 -5 23 -22 -1 -13 -2 -49 -1
-80 l1 -58 40 0 40 0 0 40 c0 33 3 40 20 40 22 0 29 35 8 43 -7 2 0 8 15 12
18 5 33 3 40 -4 6 -6 26 -11 44 -11 31 0 33 2 33 35 0 26 -4 35 -17 36 -18 1
32 17 75 24 19 3 22 -1 22 -26 0 -16 -4 -29 -10 -29 -5 0 -10 5 -10 10 0 6 -6
5 -14 -2 -14 -13 -11 -32 4 -23 5 3 15 -2 24 -10 12 -12 20 -13 40 -3 20 8 32
8 51 0 14 -7 37 -12 50 -12 18 0 25 -5 25 -20 0 -13 7 -20 20 -20 13 0 20 7
20 20 0 13 7 20 20 20 13 0 20 7 20 20 0 17 7 20 44 20 37 0 46 4 51 21 5 13
2 25 -6 30 -7 4 -11 10 -9 12 3 2 19 -4 35 -14 17 -11 24 -19 18 -19 -7 0 -13
-4 -13 -10 0 -5 9 -10 21 -10 16 0 19 4 15 17 -5 13 -1 12 17 -5 22 -21 25
-21 31 -6 6 15 8 16 24 0 24 -21 90 -21 114 1 17 15 18 15 18 0 0 -10 6 -17
14 -17 16 0 26 21 26 55 0 17 6 25 22 27 12 2 23 9 26 16 3 9 -3 11 -22 6 -14
-3 -26 -2 -26 3 0 6 30 11 68 12 37 1 134 4 217 7 154 6 180 1 84 -15 l-54 -9
57 -1 c46 -1 58 -5 62 -19 4 -10 14 -19 24 -19 20 0 47 25 38 35 -4 3 -11 0
-16 -8 -5 -8 -12 -11 -16 -8 -10 11 23 38 47 38 18 0 20 -2 8 -16 -10 -13 -10
-17 2 -25 8 -5 23 -7 34 -4 11 2 44 5 73 5 53 0 71 14 30 24 -13 3 5 3 40 1
37 -3 62 -1 62 5 0 6 -10 11 -22 11 -56 3 211 30 337 34 77 2 178 11 225 20
84 15 352 60 420 71 19 2 39 9 44 14 6 6 19 10 29 10 10 0 21 9 24 20 3 11 16
23 29 26 26 7 30 21 11 45 -13 17 -184 46 -324 56 -40 2 -73 8 -73 11 0 4 -53
8 -118 9 -64 2 -250 7 -412 13 -162 5 -495 11 -740 11 -245 1 -433 4 -417 6
25 4 27 8 27 49 0 37 -3 44 -20 44 -17 0 -20 7 -20 50 0 43 -3 50 -19 50 -11
0 -21 -5 -23 -11 -6 -17 -88 -15 -99 2 -7 11 -11 11 -17 2 -4 -7 -38 -13 -82
-15 -67 -3 -76 -5 -85 -25 -11 -25 -25 -31 -25 -10 0 8 -9 22 -20 32 -18 16
-20 16 -20 2 0 -11 -8 -17 -24 -17 -14 0 -28 -4 -31 -10 -11 -18 -35 -11 -35
10 0 13 -7 20 -20 20 -11 0 -20 -4 -20 -10 0 -13 -37 -13 -42 0 -1 5 -56 11
-120 12 l-118 3 0 36 c0 31 -4 38 -31 49 -24 10 -36 11 -50 2 -27 -17 -39 -15
-39 8 0 13 -7 20 -20 20 -17 0 -20 -7 -20 -50 l0 -50 -40 0 c-22 0 -40 -4 -40
-10 0 -14 -166 -13 -192 1 -11 6 -32 8 -46 4 -15 -4 -21 -10 -14 -12 20 -7 14
-33 -8 -33 -16 0 -20 7 -20 35 0 28 -4 35 -20 35 -17 0 -20 7 -21 43 -1 24 -4
32 -6 19 -3 -13 -11 -26 -19 -29 -8 -3 -14 -11 -14 -19 0 -9 -11 -14 -30 -14
-17 0 -39 -5 -49 -12 -15 -9 -25 -9 -43 -1 l-23 12 25 2 c14 1 28 1 33 0 4 0
7 8 7 19 0 17 -7 20 -40 20 -33 0 -40 3 -40 20 0 17 7 20 40 20 33 0 40 3 40
20 0 13 -7 20 -20 20 -18 0 -20 7 -20 80 l0 80 -40 0 -40 0 0 100 c0 93 1 100
20 100 13 0 20 -7 20 -20 0 -17 7 -20 40 -20 33 0 40 3 40 20 0 13 7 20 20 20
13 0 20 -7 20 -20 0 -17 7 -20 40 -20 33 0 40 3 40 20 0 17 7 20 40 20 33 0
40 3 40 20 0 13 -7 20 -20 20 -17 0 -20 7 -20 40 0 33 3 40 20 40 18 0 20 7
20 59 l0 59 -36 0 c-42 0 -57 10 -26 19 12 3 22 10 22 15 0 6 -8 7 -17 3 -10
-4 -28 -10 -40 -12 -13 -3 -23 -9 -23 -14 0 -5 -3 -8 -7 -7 -9 3 -33 -6 -218
-84 -183 -78 -209 -90 -217 -102 -4 -6 -8 -8 -8 -4 0 7 -155 -56 -175 -71 -5
-5 -23 -11 -38 -15 -17 -4 -25 -11 -21 -18 4 -7 3 -8 -4 -4 -13 8 -79 -18
-105 -42 -11 -9 -20 -15 -21 -12 -2 7 -288 -111 -307 -127 -8 -7 -19 -13 -24
-13 -15 0 -95 -43 -95 -51 0 -5 -8 -6 -17 -3 -15 5 -16 4 -3 -5 8 -6 25 -11
38 -11 28 0 30 -30 2 -55 -11 -10 -20 -13 -20 -7 0 21 -35 13 -45 -10 -6 -13
-24 -32 -42 -43 -36 -23 -43 -45 -13 -45 11 0 20 -4 20 -10 0 -15 -27 -12 -61
6 -28 14 -69 12 -69 -5 0 -4 -23 -7 -51 -7 -28 0 -53 -5 -57 -11 -4 -6 -27
-10 -51 -10 -24 0 -46 -4 -50 -10 -3 -5 -23 -10 -43 -12 -29 -2 -38 1 -38 13
0 9 6 16 13 17 6 0 -3 5 -20 10 -18 5 -33 14 -33 19 0 5 -13 7 -30 3 -26 -5
-30 -3 -30 16 0 14 -6 21 -20 21 -30 0 -28 63 2 84 12 9 19 18 15 22 -6 6 200
115 245 129 36 12 191 87 208 101 20 17 328 170 360 179 14 4 54 22 90 40 79
40 318 150 380 175 133 53 954 449 932 450 -7 0 -32 -10 -54 -21 -27 -14 -43
-18 -46 -11 -4 14 -62 4 -79 -14 -7 -6 -11 -13 -10 -16 1 -2 -6 4 -15 14 -13
15 -25 17 -57 12 -23 -4 -41 -10 -41 -15 0 -5 -7 -9 -15 -9 -8 0 -15 8 -15 18
0 10 -5 23 -12 30 -15 15 -42 16 -32 0 4 -6 3 -8 -3 -5 -6 4 -46 -11 -89 -32
-43 -21 -144 -69 -224 -106 -80 -37 -174 -81 -210 -97 -36 -17 -148 -68 -250
-113 -211 -94 -451 -213 -462 -229 -4 -6 -8 -8 -8 -4 0 7 -118 -38 -135 -52
-5 -4 -66 -36 -135 -69 -69 -34 -145 -73 -170 -87 -143 -79 -320 -143 -320
-115 0 6 -10 11 -23 11 -13 0 -29 6 -35 12 -10 10 -17 10 -31 1 -13 -8 -24 -8
-41 0 -30 15 -38 37 -11 30 18 -5 19 -3 8 21 -7 14 -18 26 -24 26 -9 0 -13 16
-13 48 0 36 5 51 19 62 11 7 18 17 15 22 -3 4 2 5 10 2 9 -3 16 -1 16 5 0 6 6
11 14 11 13 0 103 39 251 110 44 21 109 52 145 69 36 16 101 49 145 73 44 24
209 104 367 178 157 74 284 139 281 144 -4 5 -1 6 4 3 6 -4 84 29 174 72 90
43 277 131 414 196 138 65 255 123 260 127 13 12 -34 -6 -85 -32 -25 -13 -50
-19 -63 -15 -16 5 -18 4 -8 -3 11 -8 -6 -19 -65 -46 -91 -42 -131 -55 -120
-37 4 6 11 9 16 6 5 -3 14 1 22 8 7 7 16 14 21 15 11 3 9 17 -3 18 -5 1 -15 2
-20 3 -6 0 -20 12 -32 26 -12 14 -28 23 -35 21 -7 -3 -13 -3 -13 -1 0 9 73 35
99 36 14 0 20 3 13 6 -10 4 -10 8 -1 20 8 9 -7 6 -42 -10 -97 -44 -108 -50
-104 -56 2 -4 -4 -7 -13 -8 -26 -1 -230 -95 -637 -294 -53 -26 -265 -118 -430
-187 -33 -14 -114 -49 -180 -79 -191 -87 -278 -125 -302 -130 -13 -3 -20 -10
-16 -16 3 -5 1 -7 -4 -4 -6 4 -30 0 -53 -8 -23 -8 -60 -15 -82 -15 -24 0 -37
-4 -33 -10 4 -6 -5 -10 -19 -10 -14 0 -26 4 -26 9 0 5 -9 7 -20 4 -14 -4 -20
0 -20 11 0 9 -8 16 -20 16 -17 0 -19 6 -18 45 1 25 6 45 11 45 6 0 7 15 4 34
-5 30 -1 37 34 66 22 17 48 33 58 35 26 5 133 55 151 71 8 7 18 13 23 13 4 0
21 8 39 17 24 13 28 18 17 26 -11 8 -10 9 4 4 11 -3 47 7 84 24 35 16 69 30
74 30 5 0 17 4 27 10 37 21 389 188 410 194 13 4 19 12 16 18 -5 7 -1 9 9 5
12 -4 14 -2 10 10 -5 13 -3 13 14 5 12 -7 25 -7 34 -1 11 7 8 9 -11 10 -23 0
-23 1 -5 9 11 5 14 9 8 9 -19 1 -16 21 3 21 8 0 22 7 30 15 9 8 11 15 5 15 -6
0 -11 7 -11 15 0 8 8 15 18 15 26 0 62 42 62 71 0 13 9 31 20 39 11 8 20 20
20 27 0 6 9 15 20 18 11 3 20 10 20 15 0 4 34 8 76 9 55 1 79 -3 90 -14 19
-19 29 -19 48 0 8 8 22 15 30 15 9 0 16 5 16 10 0 6 7 10 16 10 18 0 44 23 44
40 0 20 48 60 64 54 13 -5 16 2 16 37 0 23 3 40 6 37 3 -4 17 0 31 7 15 8 30
12 35 9 4 -3 15 2 24 10 8 9 11 16 6 16 -18 0 -243 -80 -265 -95 -12 -7 -53
-26 -92 -40 -38 -15 -80 -31 -92 -37 -57 -27 -98 23 -51 63 13 10 17 18 11 19
-7 0 -13 9 -13 20 0 16 7 20 34 20 22 0 36 6 40 16 8 22 9 21 -16 28 -19 5
-20 8 -8 16 10 6 16 6 18 0 5 -15 32 -12 32 3 0 7 24 21 53 31 28 10 108 42
177 72 165 70 489 197 581 227 41 14 111 39 157 56 46 17 87 31 92 31 5 0 12
-21 15 -47 13 -103 37 -229 55 -287 31 -99 137 -259 272 -411 21 -23 34 -46
30 -50 -4 -5 -2 -6 3 -2 6 3 51 -24 101 -61 215 -160 223 -165 404 -229 176
-63 247 -81 390 -97 178 -21 535 -26 470 -7 -20 6 -13 10 40 19 36 7 105 23
154 36 50 13 96 21 105 18 8 -3 12 -1 8 5 -4 6 7 16 26 23 67 25 214 104 274
146 148 105 239 240 268 399 8 44 20 107 26 140 6 33 14 64 19 69 5 5 6 15 3
22 -6 17 16 74 29 74 5 0 7 4 3 10 -3 5 4 19 15 30 11 11 18 25 15 30 -4 6 -1
10 4 10 6 0 11 5 11 11 0 20 53 79 71 79 11 0 27 4 37 9 9 5 69 23 132 40 490
136 790 524 850 1101 5 52 10 101 10 108 0 8 17 12 50 12 65 0 180 24 296 61
178 57 306 171 368 329 27 68 33 230 11 305 -23 79 -58 147 -101 195 l-36 40
113 53 c246 116 295 142 383 200 171 114 298 268 351 426 14 43 16 70 11 140
-4 47 -8 98 -9 113 -1 14 -6 24 -11 20 -5 -3 -7 2 -3 11 3 10 2 17 -3 17 -6 0
-10 6 -10 13 1 33 -58 116 -116 166 -35 29 -62 56 -59 60 2 4 -1 8 -8 8 -11 0
-101 58 -137 88 -8 7 -40 26 -70 42 -30 16 -71 39 -91 50 -69 40 -246 92 -364
108 -142 18 -252 19 -370 1 -49 -8 -94 -12 -99 -8 -5 3 -6 0 -2 -6 4 -7 0 -12
-11 -13 -22 -1 -41 -5 -68 -14 -19 -6 -19 -6 -2 8 17 14 17 15 0 19 -33 8 -55
-3 -50 -22 3 -11 -1 -21 -10 -24 -24 -9 -40 -5 -18 4 17 7 17 9 3 9 -10 1 -18
8 -18 16 0 8 -9 15 -20 15 -25 0 -26 -16 -2 -29 15 -9 14 -11 -8 -12 l-25 -1
25 -7 c25 -7 25 -7 -7 -19 -30 -10 -37 -8 -35 9 1 4 -9 4 -21 1 -18 -5 -19 -7
-4 -10 19 -4 24 -24 5 -21 -7 1 -24 -3 -38 -8 -103 -44 -139 -56 -165 -54 -19
1 -25 -2 -17 -7 17 -12 -611 -317 -646 -314 -18 1 -23 -1 -14 -7 11 -7 11 -9
-2 -14 -9 -4 -21 2 -30 14 -9 14 -26 20 -55 22 -26 1 -41 6 -41 14 0 7 -4 13
-10 13 -5 0 -10 9 -10 20 0 13 -7 20 -20 20 -13 0 -20 7 -20 20 0 13 7 20 19
20 23 0 31 17 24 53 -4 22 -2 27 16 27 20 0 21 4 21 120 0 113 -1 120 -20 120
-17 0 -20 7 -20 41 l0 41 103 -4 c102 -3 127 -11 127 -42 0 -9 5 -16 10 -16 6
0 10 14 10 30 0 35 17 40 23 8 l4 -23 2 23 c1 19 7 22 41 22 l40 0 0 40 0 40
40 0 c34 0 40 3 40 20 0 12 6 20 13 19 43 -5 67 2 67 21 0 17 7 20 40 20 l40
0 0 40 0 40 80 0 80 0 0 -40 0 -40 40 0 c33 0 40 3 40 20 0 13 7 20 20 20 13
0 20 -7 20 -20 0 -13 7 -20 20 -20 17 0 20 7 20 40 l0 40 60 0 c53 0 60 2 60
20 0 17 7 20 40 20 l40 0 0 40 c0 33 3 40 20 40 18 0 20 -7 20 -60 l0 -60 40
0 40 0 0 40 c0 33 3 40 20 40 13 0 20 -7 20 -20 0 -13 7 -20 20 -20 13 0 20 7
20 20 0 17 7 20 40 20 l40 0 0 81 c0 70 2 80 18 78 9 -1 31 -1 47 0 23 1 27 3
15 11 -13 9 -13 11 0 20 24 15 40 12 40 -9 0 -12 9 -20 28 -24 28 -5 47 2 25
10 -7 3 -13 20 -13 39 0 33 -1 34 -40 34 -29 0 -40 4 -40 15 0 8 -8 15 -17 15
-12 1 -7 6 12 15 l30 13 -45 3 c-38 2 -40 3 -12 6 26 4 32 9 32 29 0 17 5 24
20 24 11 0 20 -4 20 -10 0 -5 6 -10 14 -10 8 0 16 -7 20 -15 3 -9 18 -15 38
-14 18 0 27 3 21 6 -21 8 -15 43 7 43 22 0 24 -5 20 -72 l-2 -48 41 0 c34 0
41 -3 41 -20 0 -17 7 -20 40 -20 33 0 40 -3 40 -20 0 -13 7 -20 20 -20 13 0
20 -7 20 -20 0 -18 7 -20 60 -20 l60 0 0 40 0 40 40 0 40 0 0 40 0 40 40 0
c33 0 40 3 40 19 0 11 9 23 20 26 11 3 20 15 20 26 0 15 -8 19 -32 21 -28 1
-27 2 12 8 32 5 37 7 17 8 -22 2 -31 9 -40 32 -12 31 -27 40 -27 16 0 -8 -10
-22 -22 -30 -28 -20 -47 -5 -27 21 13 16 12 17 -3 4 -16 -12 -18 -11 -19 5 0
14 -2 15 -6 4 -8 -20 -29 -40 -42 -40 -6 0 -11 18 -11 40 0 33 -3 40 -20 40
-26 0 -26 27 0 35 11 3 20 15 20 26 0 17 8 19 80 19 64 0 80 3 80 15 0 8 9 15
20 15 11 0 20 -7 20 -15 0 -8 -9 -15 -20 -15 -11 0 -20 -6 -20 -14 0 -8 -11
-17 -25 -20 -14 -4 -23 -11 -20 -16 8 -13 45 -13 45 0 0 6 9 10 20 10 13 0 20
-7 20 -20 0 -17 7 -20 40 -20 33 0 40 3 40 20 0 13 7 20 20 20 13 0 20 7 20
20 0 13 -7 20 -20 20 -13 0 -20 7 -20 20 0 17 7 20 40 20 l40 0 0 59 c0 44 4
60 16 65 24 9 24 9 24 -37 0 -46 30 -87 63 -87 14 0 17 10 17 61 l0 62 -30 -6
c-17 -4 -30 -2 -30 3 0 6 9 10 20 10 13 0 20 7 20 20 0 14 -11 22 -40 30 l-40
11 30 25 c18 16 30 35 30 50 0 20 5 24 33 26 27 1 26 2 -13 8 -44 7 -44 7 -10
10 19 1 38 2 41 2 9 -1 -2 62 -13 76 -7 8 -7 12 0 12 6 0 16 -16 22 -35 6 -19
16 -35 21 -35 12 0 12 17 0 22 -5 2 -13 17 -16 33 -7 28 -6 29 7 11 12 -15 23
-18 56 -13 28 5 42 3 46 -6 3 -8 8 -7 16 6 7 11 24 17 50 17 l40 0 0 -100 c0
-91 2 -100 19 -100 21 0 35 -46 17 -55 -6 -2 3 -3 19 -1 17 1 24 1 18 -1 -7
-3 -13 -9 -13 -14 0 -6 5 -7 10 -4 6 4 10 -5 10 -21 0 -21 4 -25 20 -21 16 4
20 0 20 -19 0 -17 6 -24 20 -24 11 0 20 4 20 9 0 5 3 17 7 27 5 14 2 16 -15
12 -14 -4 -19 -2 -16 7 7 17 40 25 78 19 24 -4 28 -3 16 5 -19 14 -77 14 -85
1 -3 -5 -12 -10 -19 -10 -20 0 -7 48 15 55 25 8 24 35 -1 35 -18 0 -20 7 -20
60 0 53 -2 60 -20 60 -22 0 -26 28 -14 89 9 43 21 39 29 -9 5 -30 11 -40 26
-40 12 0 19 7 19 20 0 11 5 20 10 20 6 0 10 9 10 20 0 11 5 20 10 20 6 0 10
-9 10 -20 0 -11 5 -20 10 -20 6 0 10 9 10 20 0 11 -4 20 -10 20 -5 0 -10 9
-10 20 0 11 5 20 10 20 6 0 10 9 10 20 0 11 5 20 10 20 6 0 10 60 10 160 0
121 3 160 13 160 30 1 -21 20 -53 20 -32 0 -83 19 -52 20 6 0 12 9 12 20 0 18
-7 20 -60 20 -53 0 -60 -2 -60 -20 0 -11 5 -20 11 -20 5 0 7 -5 3 -11 -4 -8
-9 -8 -17 0 -23 23 -37 12 -37 -29 0 -33 -3 -40 -20 -40 -18 0 -20 7 -20 60 0
53 -2 60 -20 60 -19 0 -20 7 -20 100 0 85 2 100 16 100 9 0 18 -9 21 -20 3
-11 14 -20 24 -20 21 0 26 25 7 36 -7 5 -5 11 7 21 15 10 16 16 6 26 -10 9
-14 8 -22 -6 -14 -24 -27 -13 -21 19 5 26 6 26 63 20 66 -6 76 -1 27 13 -33 9
-33 9 12 10 33 1 41 4 30 11 -12 8 -11 10 8 10 19 0 22 5 22 40 0 29 4 40 15
40 8 0 15 -4 15 -10 0 -5 5 -10 10 -10 6 0 10 14 10 30 0 17 5 30 10 30 6 0
10 -13 10 -30 0 -16 5 -30 10 -30 6 0 10 5 10 11 0 7 9 9 24 5 39 -10 86 4 86
25 0 16 8 19 54 19 51 0 54 -1 60 -30 7 -38 26 -39 26 -2 0 27 20 70 20 45 0
-8 15 -13 40 -13 l40 0 0 60 0 60 48 0 c26 0 57 3 70 6 26 7 32 -20 6 -30 -8
-3 -12 -11 -9 -16 4 -7 17 -1 32 15 24 23 32 25 119 25 l94 0 0 39 c0 33 4 40
24 45 14 3 32 3 40 0 22 -8 21 22 -1 44 -11 11 -42 19 -92 24 -42 3 -2294 7
-5005 7 l-4928 1 6 -5117z m9794 5017 c7 -11 10 -20 6 -20 -7 0 -34 27 -34 34
0 13 16 5 28 -14z m-388 -40 c0 -5 -4 -10 -10 -10 -5 0 -10 5 -10 10 0 6 5 10
10 10 6 0 10 -4 10 -10z m-133 -56 c-3 -3 -12 -4 -19 -1 -8 3 -5 6 6 6 11 1
17 -2 13 -5z m6 -31 c-13 -2 -33 -2 -45 0 -13 2 -3 4 22 4 25 0 35 -2 23 -4z
m35 -80 c-10 -2 -28 -2 -40 0 -13 2 -5 4 17 4 22 1 32 -1 23 -4z m-358 -133
c0 -5 -2 -10 -4 -10 -3 0 -8 5 -11 10 -3 6 -1 10 4 10 6 0 11 -4 11 -10z m165
-350 c3 -5 -1 -10 -10 -10 -9 0 -13 5 -10 10 3 6 8 10 10 10 2 0 7 -4 10 -10z
m-165 -70 c0 -13 7 -20 20 -20 26 0 26 -31 0 -55 -14 -12 -17 -22 -10 -30 5
-6 6 -16 2 -21 -4 -5 2 -1 14 9 28 23 54 22 54 -3 0 -13 -7 -20 -20 -20 -17 0
-20 -7 -20 -40 0 -33 -3 -40 -20 -40 -13 0 -20 7 -20 20 0 17 -7 20 -40 20
-33 0 -40 -3 -40 -20 0 -17 -7 -20 -40 -20 -22 0 -40 -4 -40 -10 0 -5 -9 -10
-20 -10 -19 0 -20 7 -20 90 0 83 1 90 20 90 17 0 20 7 20 40 l0 40 80 0 c73 0
80 -2 80 -20z m160 -80 c0 -5 -9 -10 -20 -10 -11 0 -20 5 -20 10 0 6 9 10 20
10 11 0 20 -4 20 -10z m0 -40 c0 -5 -9 -10 -20 -10 -11 0 -20 5 -20 10 0 6 9
10 20 10 11 0 20 -4 20 -10z m0 -40 c0 -5 -9 -10 -20 -10 -11 0 -20 5 -20 10
0 6 9 10 20 10 11 0 20 -4 20 -10z m-411 -60 c0 -9 -4 -8 -9 5 -5 11 -9 27 -9
35 0 9 4 8 9 -5 5 -11 9 -27 9 -35z m-289 -74 c0 -3 -7 -6 -15 -6 -9 0 -15 9
-15 21 0 18 2 19 15 5 8 -8 15 -17 15 -20z m520 14 c0 -11 -4 -20 -10 -20 -5
0 -10 9 -10 20 0 11 5 20 10 20 6 0 10 -9 10 -20z m20 -72 c0 -7 -5 -20 -10
-28 -9 -13 -11 -13 -20 0 -16 24 -12 40 10 40 11 0 20 -6 20 -12z m140 -8 c0
-11 -7 -20 -15 -20 -8 0 -15 9 -15 20 0 11 7 20 15 20 8 0 15 -9 15 -20z
m-230 -10 c0 -5 -4 -10 -10 -10 -5 0 -10 5 -10 10 0 6 5 10 10 10 6 0 10 -4
10 -10z m-507 -37 c-7 -2 -21 -2 -30 0 -10 3 -4 5 12 5 17 0 24 -2 18 -5z
m337 -33 c0 -11 -7 -20 -15 -20 -8 0 -15 9 -15 20 0 11 7 20 15 20 8 0 15 -9
15 -20z m-1240 -90 c0 -5 -7 -10 -15 -10 -8 0 -15 5 -15 10 0 6 7 10 15 10 8
0 15 -4 15 -10z m1700 -71 c0 -25 -33 -22 -38 4 -2 12 3 17 17 17 15 0 21 -6
21 -21z m-400 -19 c0 -5 -4 -10 -10 -10 -5 0 -10 5 -10 10 0 6 5 10 10 10 6 0
10 -4 10 -10z m-470 -140 c0 -5 -9 -10 -20 -10 -11 0 -20 5 -20 10 0 6 9 10
20 10 11 0 20 -4 20 -10z m-90 -40 c0 -5 -4 -10 -10 -10 -5 0 -10 5 -10 10 0
6 5 10 10 10 6 0 10 -4 10 -10z m81 -33 c-5 -5 -21 -6 -38 -2 l-28 8 25 7 c31
8 55 1 41 -13z m-31 -58 c0 -5 -7 -9 -15 -9 -9 0 -15 9 -15 21 0 18 2 19 15 9
8 -7 15 -16 15 -21z m130 -85 c0 -8 -5 -12 -10 -9 -6 4 -8 11 -5 16 9 14 15
11 15 -7z m94 1 c3 -9 0 -15 -9 -15 -8 0 -15 7 -15 15 0 8 4 15 9 15 5 0 11
-7 15 -15z m-167 -66 c0 -21 -3 -26 -9 -16 -4 9 -5 22 -2 31 9 23 11 20 11
-15z m-3304 14 c-13 -2 -33 -2 -45 0 -13 2 -3 4 22 4 25 0 35 -2 23 -4z m106
-12 c10 -6 -1 -8 -30 -4 -24 3 -46 7 -48 9 -10 9 65 3 78 -5z m2651 -81 c0
-33 -4 -60 -10 -60 -5 0 -10 -8 -10 -19 0 -28 -25 -44 -57 -36 -16 4 -22 10
-15 12 6 3 12 19 12 37 0 22 9 42 25 59 15 14 22 28 16 31 -5 4 -14 -1 -19
-10 -13 -24 -30 -9 -24 21 4 22 10 25 43 25 l39 0 0 -60z m-3540 -24 c0 -2 -7
-6 -15 -10 -8 -3 -15 -1 -15 4 0 6 7 10 15 10 8 0 15 -2 15 -4z m-91 -46 c-6
-5 -18 -6 -26 -3 -19 8 -16 11 13 11 17 0 22 -3 13 -8z m932 -25 c198 -42 358
-111 498 -215 219 -162 346 -415 358 -710 10 -255 -66 -409 -261 -529 -119
-73 -727 -362 -1356 -645 -137 -62 -343 -184 -402 -238 -163 -151 -275 -381
-309 -639 -11 -79 -7 -291 6 -349 7 -27 11 -25 -320 -189 l-121 -59 -59 44
c-221 164 -417 446 -498 714 -73 240 -85 474 -37 710 24 116 90 295 152 410
151 279 407 477 703 545 60 14 155 16 704 15 l634 0 29 27 c44 42 32 97 -30
135 -33 21 -44 21 -345 19 -171 -1 -357 1 -413 5 l-104 7 -21 56 c-11 31 -26
97 -32 148 -9 76 -8 105 6 176 9 47 25 105 36 129 24 57 103 160 150 197 126
100 401 214 577 240 104 15 375 13 455 -4z m-1032 -31 c-24 -14 -50 -30 -57
-36 -9 -8 -11 -7 -7 3 3 8 15 19 28 25 12 5 21 15 20 20 -1 6 12 11 29 12 l32
1 -45 -25z m1606 -4 c-3 -5 -12 -10 -18 -10 -7 0 -6 4 3 10 19 12 23 12 15 0z
m1645 -190 c0 -13 -7 -20 -20 -20 -13 0 -20 7 -20 20 0 13 7 20 20 20 13 0 20
-7 20 -20z m-350 -40 c0 -5 -7 -10 -15 -10 -8 0 -15 5 -15 10 0 6 7 10 15 10
8 0 15 -4 15 -10z m-92 -87 c-10 -2 -28 -2 -40 0 -13 2 -5 4 17 4 22 1 32 -1
23 -4z m-5040 -93 c39 -24 72 -75 72 -113 0 -41 -83 -127 -122 -127 -57 0
-124 54 -134 107 -9 46 12 90 59 124 47 34 80 36 125 9z m1191 13 c240 -6 242
-6 276 -32 36 -28 50 -50 60 -94 4 -23 0 -34 -23 -55 -61 -57 -95 -62 -459
-65 -317 -2 -333 -3 -359 -23 -25 -18 -28 -27 -31 -90 -1 -38 -5 -81 -8 -97
-5 -31 19 -61 63 -79 40 -15 230 -20 457 -11 177 7 205 6 235 -9 21 -10 39
-13 45 -7 5 5 14 9 19 9 19 0 -9 -18 -114 -72 -217 -112 -353 -223 -470 -383
-34 -47 -64 -85 -67 -85 -2 0 -1 10 3 23 6 20 5 20 -15 -5 -11 -14 -21 -31
-21 -37 0 -6 -4 -11 -10 -11 -5 0 -10 13 -10 29 0 20 -6 32 -19 36 -10 3 -21
15 -24 25 -4 16 0 20 18 20 22 0 23 4 22 49 -1 27 -5 53 -9 57 -4 4 -11 29
-14 55 -6 46 -9 49 -41 55 -20 4 -119 4 -222 0 -102 -3 -301 -7 -441 -8 -225
-1 -259 0 -288 16 -80 42 -92 130 -28 195 l36 36 328 5 c407 7 409 8 412 136
2 126 -6 145 -85 179 -61 28 -84 52 -91 97 -10 57 41 131 96 141 41 7 518 8
779 0z m5190 -269 c92 -19 203 -63 198 -78 -2 -6 -53 -30 -113 -54 -60 -23
-156 -61 -214 -84 -211 -83 -281 -127 -318 -201 -42 -83 -17 -162 62 -201 34
-16 45 -18 81 -8 47 12 427 193 635 301 75 39 148 71 164 71 36 0 92 -56 127
-126 20 -41 24 -64 24 -139 0 -76 -4 -99 -26 -145 -37 -80 -163 -208 -278
-284 -120 -80 -566 -311 -871 -451 -69 -32 -208 -98 -310 -147 -102 -50 -264
-128 -360 -173 -96 -46 -203 -97 -238 -114 -34 -17 -65 -31 -67 -31 -3 0 -121
-56 -263 -124 -141 -68 -345 -165 -452 -216 -107 -50 -278 -134 -380 -185
-101 -52 -186 -92 -189 -90 -2 3 17 33 44 67 104 134 132 232 83 293 -32 41
-77 55 -196 61 -139 8 -261 -13 -396 -67 -56 -23 -140 -56 -188 -74 -85 -32
-105 -42 -159 -86 -18 -14 -50 -23 -105 -30 -147 -18 -379 -101 -615 -220 -34
-16 -63 -28 -66 -25 -11 11 -23 157 -18 216 28 292 164 512 417 674 49 31 545
279 878 438 58 28 548 271 1090 540 1202 599 1278 633 1505 683 165 37 361 40
514 9z m-4533 -231 c-3 -7 -13 -13 -23 -13 -17 1 -17 1 -1 11 14 7 16 20 13
62 l-4 52 10 -49 c5 -27 8 -55 5 -63z m2803 -117 c-12 -11 -88 -43 -83 -35 3
5 20 16 37 23 31 14 55 20 46 12z m-149 -70 c0 -2 -7 -7 -16 -10 -8 -3 -12 -2
-9 4 6 10 25 14 25 6z m-50 -23 c-8 -3 -24 -10 -35 -15 -20 -9 -20 -9 -1 6 11
9 27 16 35 15 14 0 14 -1 1 -6z m-3649 -416 c-10 -9 -11 -8 -5 6 3 10 9 15 12
12 3 -3 0 -11 -7 -18z m-168 -357 c-3 -12 -8 -19 -11 -16 -5 6 5 36 12 36 2 0
2 -9 -1 -20z m5598 -250 c166 -166 125 -425 -82 -523 -223 -105 -293 -125
-384 -112 l-42 7 -43 131 c-23 73 -53 154 -67 180 -13 26 -21 52 -18 57 14 22
33 7 44 -32 8 -31 24 -54 56 -81 25 -21 45 -36 45 -32 0 3 -16 28 -35 56 -19
28 -35 59 -35 69 0 31 30 79 77 120 57 50 73 51 73 4 0 -174 168 -312 300
-246 40 20 65 63 81 145 16 76 6 117 -44 178 -23 28 -46 57 -51 64 -10 14 38
64 62 65 7 0 36 -23 63 -50z m-6506 -180 c33 -13 82 -50 415 -315 413 -329
404 -323 473 -331 l59 -7 23 -51 c70 -157 349 -532 449 -604 l37 -26 -43 -17
c-24 -10 -97 -47 -163 -83 -66 -37 -144 -78 -172 -93 l-53 -27 -124 11 c-68 6
-136 18 -151 25 l-27 14 40 26 c21 14 64 55 95 91 52 58 57 69 57 110 0 88
-90 157 -236 183 -85 15 -189 14 -245 -1 -25 -6 -31 0 -103 112 -43 65 -111
174 -152 243 -41 69 -104 170 -139 225 -102 159 -235 391 -235 409 0 76 113
137 195 106z m822 -132 c-2 -13 -4 -5 -4 17 -1 22 1 32 4 23 2 -10 2 -28 0
-40z m4886 -96 c53 -69 89 -138 113 -217 26 -83 26 -326 0 -445 -84 -398 -321
-670 -671 -772 -80 -23 -83 -23 -600 -20 -565 2 -781 -7 -824 -34 -56 -37 -62
-60 -27 -101 l24 -28 412 -5 412 -5 30 -95 c40 -130 56 -280 39 -362 -17 -85
-61 -177 -110 -231 -47 -51 -187 -147 -257 -178 -27 -11 -107 -38 -179 -60
-169 -51 -328 -66 -537 -50 -157 13 -183 18 -347 68 -129 39 -256 95 -328 144
-216 147 -353 322 -402 514 -19 71 -51 236 -51 259 0 5 25 5 58 0 31 -4 136
-8 232 -8 160 0 185 2 283 28 129 33 281 92 338 132 48 33 115 110 152 174 36
63 67 183 67 261 l0 67 48 30 c26 17 94 53 152 81 200 96 536 254 688 323 85
38 171 80 191 92 33 21 155 80 701 336 80 38 184 86 231 108 47 22 89 45 93
51 10 16 19 8 69 -57z m-5018 -64 c13 -2 16 -6 9 -11 -7 -4 -20 1 -31 11 -10
9 -14 14 -8 11 5 -4 19 -9 30 -11z m70 -58 c3 -5 2 -10 -4 -10 -5 0 -13 5 -16
10 -3 6 -2 10 4 10 5 0 13 -4 16 -10z m88 -17 c3 -16 9 -36 12 -45 10 -26 -12
-22 -41 7 -14 14 -30 25 -36 25 -6 0 -1 9 12 20 31 27 46 25 53 -7z m-1035
-138 c-3 -3 -9 2 -12 12 -6 14 -5 15 5 6 7 -7 10 -15 7 -18z m3942 -80 c17 -9
30 -21 30 -28 0 -13 -120 -195 -197 -299 -39 -52 -109 -116 -117 -107 -2 2
-12 24 -23 49 -33 72 -135 184 -206 226 -34 20 -64 38 -65 39 -2 2 11 8 30 13
18 5 101 30 183 55 224 69 310 81 365 52z m-633 -279 c168 -76 279 -296 238
-471 -19 -85 -34 -113 -90 -169 -49 -48 -181 -118 -303 -159 -58 -19 -88 -22
-227 -22 -136 0 -378 21 -474 41 l-24 5 23 24 c36 39 19 48 -27 15 -43 -32
-106 -58 -423 -176 -96 -35 -200 -76 -231 -89 -31 -14 -60 -25 -64 -25 -7 0
-64 -22 -295 -112 -41 -17 -115 -43 -165 -58 -49 -16 -198 -65 -330 -110 -464
-156 -746 -232 -807 -217 -73 19 -28 50 372 261 96 51 274 146 395 211 121 65
252 135 290 155 39 21 120 64 180 97 218 119 454 242 642 336 105 53 231 118
280 146 48 27 129 67 178 89 50 22 136 63 192 91 342 169 518 205 670 137z
m-2420 -389 c37 -19 50 -55 34 -86 -36 -67 -347 -179 -628 -226 -161 -28 -213
-31 -231 -13 -34 34 1 72 133 145 187 104 300 155 420 189 69 19 229 14 272
-9z m2 -438 c49 -14 51 -23 11 -38 -20 -6 -30 -6 -30 0 0 5 -12 22 -26 36 -14
14 -19 23 -11 20 8 -3 33 -11 56 -18z m-29 -53 c0 -8 -112 -67 -117 -62 -3 3
3 9 13 12 24 9 65 40 59 46 -2 2 7 5 20 6 14 1 25 0 25 -2z m-141 -80 c-2 -2
-24 -14 -49 -26 -45 -22 -43 -10 2 15 21 12 57 20 47 11z m4277 -72 c-3 -9 -6
-28 -7 -42 l-1 -27 -8 25 c-13 41 -11 60 6 60 11 0 14 -5 10 -16z m-4447 -18
c-2 -2 -15 -9 -29 -15 -24 -11 -24 -11 -6 3 16 13 49 24 35 12z m-79 -41 c-14
-8 -29 -14 -35 -14 -5 0 1 6 15 14 14 8 30 14 35 14 6 0 -1 -6 -15 -14z m-100
-50 c0 -2 -10 -10 -22 -16 -21 -11 -22 -11 -9 4 13 16 31 23 31 12z m-190
-100 c0 -2 -10 -9 -22 -15 -22 -11 -22 -10 -4 4 21 17 26 19 26 11z m-150 -92
c-14 -9 -28 -22 -32 -27 -5 -8 -8 -7 -8 0 0 12 38 43 55 43 5 1 -2 -7 -15 -16z
m-65 -53 c-10 -11 -20 -18 -23 -15 -7 6 18 35 31 35 5 0 2 -9 -8 -20z m1255
-20 c0 -5 -10 -10 -22 -10 -19 0 -20 2 -8 10 19 13 30 13 30 0z m-454 -139
c-7 -10 -97 -43 -103 -37 -3 2 47 24 105 45 2 0 1 -3 -2 -8z m-316 -101 c-8
-5 -19 -10 -25 -10 -5 0 -3 5 5 10 8 5 20 10 25 10 6 0 3 -5 -5 -10z m615 0
c-3 -5 -12 -10 -18 -10 -16 0 -84 -35 -106 -53 -30 -27 -76 -44 -128 -49 -50
-5 -53 -4 -53 18 0 16 6 24 18 24 10 0 24 9 32 20 8 11 22 20 31 20 10 0 19 4
21 10 2 5 27 12 57 15 30 3 57 7 59 10 10 10 93 5 87 -5z m880 -310 c-3 -5
-12 -10 -18 -10 -7 0 -6 4 3 10 19 12 23 12 15 0z m-1065 -4 c0 -3 -4 -8 -10
-11 -5 -3 -10 -1 -10 4 0 6 5 11 10 11 6 0 10 -2 10 -4z m1030 -10 c0 -11 -19
-15 -25 -6 -3 5 1 10 9 10 9 0 16 -2 16 -4z m-330 -166 c-20 -13 -33 -13 -25
0 3 6 14 10 23 10 15 0 15 -2 2 -10z m1027 -26 c-3 -3 -12 -4 -19 -1 -8 3 -5
6 6 6 11 1 17 -2 13 -5z m-47 -18 c0 -3 -4 -8 -10 -11 -5 -3 -10 -1 -10 4 0 6
5 11 10 11 6 0 10 -2 10 -4z m-1130 -26 c0 -5 -4 -10 -9 -10 -6 0 -13 5 -16
10 -3 6 1 10 9 10 9 0 16 -4 16 -10z m1097 4 c-3 -3 -12 -4 -19 -1 -8 3 -5 6
6 6 11 1 17 -2 13 -5z m-112 -44 c-3 -5 -12 -10 -18 -10 -7 0 -6 4 3 10 19 12
23 12 15 0z m-1085 -4 c0 -2 -7 -6 -15 -10 -8 -3 -15 -1 -15 4 0 6 7 10 15 10
8 0 15 -2 15 -4z m1090 -526 c0 -13 -7 -20 -20 -20 -13 0 -20 7 -20 20 0 13 7
20 20 20 13 0 20 -7 20 -20z m-364 -162 c-9 -5 -23 -5 -32 0 -12 6 -7 9 16 9
23 0 28 -3 16 -9z m-641 -88 c-3 -5 -14 -10 -23 -9 -14 0 -13 2 3 9 27 11 27
11 20 0z m806 -143 c-13 -13 -26 -3 -16 12 3 6 11 8 17 5 6 -4 6 -10 -1 -17z
m-1701 -7 c0 -5 -9 -10 -21 -10 -11 0 -17 5 -14 10 3 6 13 10 21 10 8 0 14 -4
14 -10z m1675 -10 c3 -5 1 -10 -4 -10 -6 0 -11 5 -11 10 0 6 2 10 4 10 3 0 8
-4 11 -10z m225 -165 c0 -28 -4 -35 -20 -35 -16 0 -20 7 -20 35 0 28 4 35 20
35 16 0 20 -7 20 -35z m260 -60 c0 -8 -4 -15 -10 -15 -5 0 -10 7 -10 15 0 8 5
15 10 15 6 0 10 -7 10 -15z m410 0 c0 -8 -4 -15 -10 -15 -5 0 -10 7 -10 15 0
8 5 15 10 15 6 0 10 -7 10 -15z m290 -45 c0 -17 -7 -20 -40 -20 -27 0 -40 4
-40 13 0 21 11 27 47 27 26 0 33 -4 33 -20z m228 -7 c-10 -2 -26 -2 -35 0 -10
3 -2 5 17 5 19 0 27 -2 18 -5z m-153 -63 c34 -5 2 -7 -98 -5 -82 2 -151 6
-154 9 -9 9 193 6 252 -4z m293 3 c-10 -2 -26 -2 -35 0 -10 3 -2 5 17 5 19 0
27 -2 18 -5z m-175 -10 c-7 -2 -19 -2 -25 0 -7 3 -2 5 12 5 14 0 19 -2 13 -5z
m-1587 -27 c33 4 54 3 54 -3 0 -13 -170 -24 -190 -13 -11 6 -3 11 28 16 23 3
43 12 43 18 1 6 3 3 6 -7 4 -16 12 -17 59 -11z m-161 -16 c4 -6 -6 -10 -22
-10 -22 0 -25 2 -13 10 19 12 27 12 35 0z m752 -286 c-3 -3 -12 -4 -19 -1 -8
3 -5 6 6 6 11 1 17 -2 13 -5z m683 -44 c0 -5 -9 -10 -21 -10 -11 0 -17 5 -14
10 3 6 13 10 21 10 8 0 14 -4 14 -10z m-140 -4 c0 -3 -4 -8 -10 -11 -5 -3 -10
-1 -10 4 0 6 5 11 10 11 6 0 10 -2 10 -4z m767 -2 c-3 -3 -12 -4 -19 -1 -8 3
-5 6 6 6 11 1 17 -2 13 -5z m-909 -29 c-4 -17 -1 -25 8 -25 22 0 16 -17 -8
-24 -48 -12 -78 -7 -78 14 0 13 7 20 20 20 13 0 20 7 20 20 0 14 7 20 21 20
17 0 20 -5 17 -25z m612 9 c0 -2 -12 -4 -27 -4 -21 0 -24 3 -14 9 13 8 41 5
41 -5z m-787 -21 c-4 -11 -3 -14 5 -9 8 5 12 0 12 -13 0 -18 -6 -21 -40 -21
-34 0 -40 3 -40 21 0 18 4 20 25 15 24 -6 30 1 26 27 -1 5 3 6 8 2 6 -3 7 -13
4 -22z m35 2 c-3 -3 -9 2 -12 12 -6 14 -5 15 5 6 7 -7 10 -15 7 -18z m465 18
c-13 -2 -33 -2 -45 0 -13 2 -3 4 22 4 25 0 35 -2 23 -4z m-162 -16 c-1 -12
-15 -9 -19 4 -3 6 1 10 8 8 6 -3 11 -8 11 -12z m-1241 -187 c0 -13 -7 -20 -20
-20 -13 0 -20 7 -20 20 0 13 7 20 20 20 13 0 20 -7 20 -20z m0 -320 c0 -5 -9
-10 -20 -10 -11 0 -20 5 -20 10 0 6 9 10 20 10 11 0 20 -4 20 -10z m-159 -73
c-5 -5 -21 -6 -38 -2 l-28 8 25 7 c31 8 55 1 41 -13z m83 -16 c8 -12 -13 -18
-42 -13 -18 4 -20 7 -10 13 17 11 45 11 52 0z m-361 -54 c-2 -4 -15 3 -28 15
-13 12 -21 26 -18 31 2 4 15 -3 28 -15 13 -12 21 -26 18 -31z m-328 13 c-3 -5
-10 -10 -16 -10 -5 0 -9 5 -9 10 0 6 7 10 16 10 8 0 12 -4 9 -10z m235 -6 c0
-2 -7 -4 -15 -4 -8 0 -15 4 -15 10 0 5 7 7 15 4 8 -4 15 -8 15 -10z m-110
-104 c0 -5 -9 -10 -20 -10 -11 0 -20 5 -20 10 0 6 9 10 20 10 11 0 20 -4 20
-10z m-159 -33 c-5 -5 -21 -6 -38 -2 l-28 8 25 7 c31 8 55 1 41 -13z m279 -27
l0 -40 60 0 c53 0 60 -2 60 -20 0 -13 7 -20 20 -20 31 0 24 -33 -10 -48 -24
-11 -36 -11 -67 -1 -21 7 -43 17 -50 22 -6 4 -14 3 -18 -3 -3 -5 -22 -10 -41
-10 -27 0 -34 4 -34 20 0 13 7 20 20 20 13 0 20 7 20 18 0 20 -52 44 -78 35
-15 -4 -15 -3 -2 6 8 6 22 8 31 6 12 -4 15 1 11 25 -4 29 -3 30 37 30 l41 0 0
-40z m-360 10 c0 -5 -5 -10 -11 -10 -5 0 -7 5 -4 10 3 6 8 10 11 10 2 0 4 -4
4 -10z m78 -197 c-10 -2 -28 -2 -40 0 -13 2 -5 4 17 4 22 1 32 -1 23 -4z"/>
<path d="M8805 9300 c11 -5 27 -9 35 -9 9 0 8 4 -5 9 -11 5 -27 9 -35 9 -9 0
-8 -4 5 -9z"/>
<path d="M8808 9263 c6 -2 18 -2 25 0 6 3 1 5 -13 5 -14 0 -19 -2 -12 -5z"/>
<path d="M4242 7739 c-78 -39 -121 -138 -92 -211 25 -64 91 -116 168 -133 77
-16 200 43 228 110 30 73 13 128 -60 192 -74 65 -165 81 -244 42z"/>
<path d="M5710 6873 c-49 -47 -193 -143 -265 -177 -51 -24 -261 -118 -387
-173 -21 -9 -38 -20 -38 -24 0 -5 -19 -13 -42 -20 -23 -6 -76 -27 -117 -46
-42 -19 -96 -43 -121 -53 -25 -10 -97 -42 -160 -70 -63 -29 -146 -65 -185 -80
-38 -16 -101 -42 -140 -60 -38 -17 -79 -35 -90 -39 -139 -57 -261 -139 -389
-263 -88 -86 -99 -102 -147 -202 -48 -103 -89 -251 -89 -322 0 -13 -4 -24 -9
-24 -16 0 -32 -91 -36 -209 -4 -115 3 -108 21 24 3 22 10 44 15 50 5 5 9 18 9
30 0 12 4 25 9 31 10 10 33 120 52 249 10 70 31 129 50 145 3 3 12 16 19 29
10 19 10 22 -2 16 -31 -18 167 187 236 243 27 22 55 38 62 35 8 -3 14 -1 14 5
0 5 16 13 35 16 19 4 47 18 61 31 15 14 39 25 54 25 31 0 121 45 183 93 39 29
60 40 155 79 17 7 32 16 32 20 0 5 5 8 10 8 6 0 10 -9 10 -20 0 -15 7 -20 26
-20 14 0 23 4 20 9 -3 5 12 11 33 15 22 3 46 13 55 21 8 8 19 15 25 15 6 0 57
23 113 51 57 28 114 56 128 62 14 7 30 17 35 23 6 7 23 15 38 18 17 4 25 11
21 18 -5 8 -2 9 9 5 10 -3 17 -2 17 3 0 19 35 45 58 42 19 -3 22 1 22 30 0 25
3 29 10 18 8 -13 10 -13 10 2 0 19 72 44 92 32 7 -4 8 -3 4 5 -6 8 3 10 32 5
30 -5 50 0 90 20 28 14 60 26 71 26 11 0 35 13 53 28 18 16 49 39 68 52 19 13
49 35 65 49 17 14 43 35 59 46 25 18 83 102 75 109 -2 1 -20 -13 -39 -31z"/>
<path d="M6954 6691 c-96 -58 -49 -211 64 -211 95 0 136 141 60 205 -36 30
-81 32 -124 6z"/>
<path d="M6603 6531 c-41 -26 -53 -49 -53 -106 0 -38 5 -52 29 -76 50 -50 128
-40 164 21 60 101 -44 221 -140 161z"/>
<path d="M6232 6350 c-68 -67 -45 -171 44 -200 43 -14 79 2 111 49 56 82 12
181 -80 181 -37 0 -51 -6 -75 -30z"/>
<path d="M5903 6205 c-38 -16 -63 -60 -63 -111 0 -54 53 -104 110 -104 112 0
149 172 46 215 -43 18 -52 18 -93 0z"/>
<path d="M5532 6024 c-91 -64 -51 -214 58 -214 58 0 100 56 100 133 0 38 -5
49 -31 71 -36 30 -92 35 -127 10z"/>
<path d="M5183 5850 c-34 -23 -73 -92 -73 -129 0 -36 70 -101 108 -101 67 0
131 93 116 168 -14 68 -93 100 -151 62z"/>
<path d="M4813 5649 c-96 -18 -161 -71 -170 -136 -5 -37 -2 -42 33 -71 55 -45
95 -43 173 9 33 22 70 52 81 66 28 36 26 88 -5 118 -25 26 -42 28 -112 14z"/>
<path d="M4400 5487 c-29 -15 -55 -76 -46 -111 8 -32 39 -53 91 -61 78 -13
139 61 105 125 -12 22 -82 59 -110 60 -8 0 -26 -6 -40 -13z"/>
<path d="M5610 3714 c-8 -1 -32 -5 -53 -9 -42 -7 -100 -52 -123 -96 -7 -15
-14 -51 -14 -78 0 -42 5 -56 32 -87 44 -50 99 -74 173 -74 79 0 122 13 167 50
51 42 65 89 43 146 -33 87 -147 162 -225 148z"/>
<path d="M4470 4823 c-74 -39 -103 -94 -103 -196 0 -84 20 -131 80 -189 71
-69 172 -89 239 -48 64 40 99 166 74 269 -23 95 -103 172 -195 186 -32 5 -50
1 -95 -22z"/>
<path d="M2745 110 c4 -6 11 -8 16 -5 14 9 11 15 -7 15 -8 0 -12 -5 -9 -10z"/>
<path d="M10010 10135 c-10 -12 -9 -16 5 -21 19 -8 40 9 31 25 -10 15 -21 14
-36 -4z"/>
<path d="M9400 9900 c0 -13 7 -20 20 -20 13 0 20 7 20 20 0 13 -7 20 -20 20
-13 0 -20 -7 -20 -20z"/>
<path d="M9315 9870 c4 -6 11 -8 16 -5 14 9 11 15 -7 15 -8 0 -12 -5 -9 -10z"/>
<path d="M9345 9850 c-3 -5 1 -10 10 -10 9 0 13 5 10 10 -3 6 -8 10 -10 10 -2
0 -7 -4 -10 -10z"/>
<path d="M9235 9810 c-3 -5 6 -12 20 -16 14 -3 25 -12 25 -20 0 -8 9 -14 20
-14 13 0 20 7 20 20 0 13 -7 20 -20 20 -11 0 -20 5 -20 10 0 13 -37 13 -45 0z"/>
<path d="M9310 9620 c0 -5 5 -10 10 -10 6 0 10 5 10 10 0 6 -4 10 -10 10 -5 0
-10 -4 -10 -10z"/>
<path d="M9000 9580 c0 -13 7 -20 20 -20 13 0 20 7 20 20 0 13 -7 20 -20 20
-13 0 -20 -7 -20 -20z"/>
<path d="M9680 9580 c0 -13 7 -20 20 -20 13 0 20 7 20 20 0 13 -7 20 -20 20
-13 0 -20 -7 -20 -20z"/>
<path d="M9600 9540 c0 -13 7 -20 20 -20 13 0 20 -7 20 -20 0 -13 -7 -20 -20
-20 -13 0 -20 -7 -20 -20 0 -18 7 -20 60 -20 l60 0 0 40 0 40 -40 0 c-33 0
-40 3 -40 20 0 13 -7 20 -20 20 -13 0 -20 -7 -20 -20z"/>
<path d="M9235 9520 c-4 -6 5 -10 19 -10 14 0 26 5 26 10 0 6 -9 10 -19 10
-11 0 -23 -4 -26 -10z"/>
<path d="M9258 9483 c7 -3 16 -2 19 1 4 3 -2 6 -13 5 -11 0 -14 -3 -6 -6z"/>
<path d="M9508 9473 c7 -3 16 -2 19 1 4 3 -2 6 -13 5 -11 0 -14 -3 -6 -6z"/>
<path d="M9480 9450 c0 -5 5 -10 11 -10 5 0 7 5 4 10 -3 6 -8 10 -11 10 -2 0
-4 -4 -4 -10z"/>
<path d="M9600 9380 c0 -13 7 -20 20 -20 13 0 20 7 20 20 0 13 -7 20 -20 20
-13 0 -20 -7 -20 -20z"/>
<path d="M9680 9380 c0 -13 7 -20 20 -20 13 0 20 7 20 20 0 13 -7 20 -20 20
-13 0 -20 -7 -20 -20z"/>
<path d="M8894 8867 c3 -10 6 -30 6 -43 0 -15 6 -24 15 -24 20 0 19 14 -6 52
-12 18 -18 25 -15 15z"/>
<path d="M9200 8860 c0 -13 7 -20 20 -20 13 0 20 7 20 20 0 13 -7 20 -20 20
-13 0 -20 -7 -20 -20z"/>
<path d="M9255 8820 c-18 -19 -17 -20 3 -20 15 0 22 6 22 20 0 11 -2 20 -3 20
-2 0 -12 -9 -22 -20z"/>
<path d="M9240 8760 c0 -5 5 -10 10 -10 6 0 10 5 10 10 0 6 -4 10 -10 10 -5 0
-10 -4 -10 -10z"/>
<path d="M9073 8723 c-18 -7 -16 -43 2 -43 9 0 15 9 15 25 0 14 -1 25 -2 24
-2 0 -9 -3 -15 -6z"/>
<path d="M8922 8603 c-17 -7 -5 -23 19 -23 10 0 19 7 19 15 0 15 -14 18 -38 8z"/>
<path d="M9285 8580 c27 -12 43 -12 25 0 -8 5 -22 9 -30 9 -10 0 -8 -3 5 -9z"/>
<path d="M8704 8558 c-3 -5 -3 -21 1 -36 4 -15 10 -21 12 -14 3 6 13 12 24 12
30 0 24 37 -6 42 -14 3 -28 1 -31 -4z"/>
<path d="M8355 8520 c-4 -6 9 -10 32 -10 28 0 34 3 23 10 -20 13 -47 13 -55 0z"/>
<path d="M8355 8480 c8 -13 35 -13 55 0 11 7 5 10 -23 10 -23 0 -36 -4 -32
-10z"/>
<path d="M8480 8460 c0 -5 9 -10 20 -10 11 0 20 5 20 10 0 6 -9 10 -20 10 -11
0 -20 -4 -20 -10z"/>
<path d="M9218 8463 c7 -3 16 -2 19 1 4 3 -2 6 -13 5 -11 0 -14 -3 -6 -6z"/>
<path d="M8650 8440 c0 -5 -11 -10 -25 -10 -14 0 -25 -4 -25 -10 0 -5 9 -10
19 -10 11 0 25 -2 33 -5 7 -3 19 -1 27 4 12 8 12 12 -2 25 -18 18 -27 20 -27
6z m20 -20 c0 -5 -4 -10 -10 -10 -5 0 -10 5 -10 10 0 6 5 10 10 10 6 0 10 -4
10 -10z"/>
<path d="M8853 8383 c9 -2 25 -2 35 0 9 3 1 5 -18 5 -19 0 -27 -2 -17 -5z"/>
<path d="M7924 8281 c5 -8 56 -3 56 5 0 2 -14 4 -31 4 -16 0 -28 -4 -25 -9z"/>
<path d="M9043 8265 c-6 -14 -7 -25 -3 -25 5 0 11 6 14 13 5 10 7 10 12 0 3
-7 9 -13 14 -13 4 0 3 11 -3 25 -7 14 -14 25 -17 25 -3 0 -10 -11 -17 -25z"/>
<path d="M8980 8220 c0 -24 15 -27 24 -4 9 22 8 24 -9 24 -8 0 -15 -9 -15 -20z"/>
<path d="M8000 8200 c0 -5 9 -10 20 -10 11 0 20 5 20 10 0 6 -9 10 -20 10 -11
0 -20 -4 -20 -10z"/>
<path d="M8880 8180 c0 -13 7 -20 20 -20 13 0 20 7 20 20 0 13 -7 20 -20 20
-13 0 -20 -7 -20 -20z"/>
<path d="M8000 8160 c0 -5 9 -10 20 -10 11 0 20 5 20 10 0 6 -9 10 -20 10 -11
0 -20 -4 -20 -10z"/>
<path d="M8960 8140 c0 -13 7 -20 20 -20 13 0 20 7 20 20 0 13 -7 20 -20 20
-13 0 -20 -7 -20 -20z"/>
<path d="M7920 8120 c0 -5 5 -10 10 -10 6 0 10 5 10 10 0 6 -4 10 -10 10 -5 0
-10 -4 -10 -10z"/>
<path d="M8441 8121 c-10 -6 -10 -10 -1 -16 13 -8 60 2 60 13 0 11 -42 13 -59
3z"/>
<path d="M9030 8120 c0 -5 7 -10 15 -10 8 0 15 -4 15 -10 0 -5 -7 -10 -15 -10
-8 0 -15 -4 -15 -10 0 -14 28 -12 33 3 3 9 7 9 20 -2 15 -11 17 -11 17 2 0 9
-9 19 -20 22 -11 3 -20 11 -20 16 0 5 -7 9 -15 9 -8 0 -15 -4 -15 -10z"/>
<path d="M7839 8031 c7 -5 11 -14 7 -20 -5 -7 -1 -9 8 -5 20 8 20 20 0 28 -23
9 -31 7 -15 -3z"/>
<path d="M7550 7900 c0 -5 5 -10 10 -10 6 0 10 5 10 10 0 6 -4 10 -10 10 -5 0
-10 -4 -10 -10z"/>
<path d="M7607 7893 c-14 -13 -6 -20 23 -20 32 0 40 11 14 21 -20 8 -29 8 -37
-1z"/>
<path d="M6996 7811 c-3 -5 1 -12 10 -15 25 -10 34 -7 34 9 0 16 -35 21 -44 6z"/>
<path d="M6870 7738 c0 -19 2 -20 10 -8 13 19 13 30 0 30 -5 0 -10 -10 -10
-22z"/>
<path d="M6910 7750 c0 -5 5 -10 10 -10 6 0 10 5 10 10 0 6 -4 10 -10 10 -5 0
-10 -4 -10 -10z"/>
<path d="M7485 7690 c-8 -13 9 -20 24 -11 10 6 9 10 -3 14 -8 3 -18 2 -21 -3z"/>
<path d="M6515 7640 c3 -5 15 -10 25 -10 10 0 22 5 25 10 4 6 -7 10 -25 10
-18 0 -29 -4 -25 -10z"/>
<path d="M7380 7615 c0 -8 5 -15 10 -15 6 0 10 7 10 15 0 8 -4 15 -10 15 -5 0
-10 -7 -10 -15z"/>
<path d="M7320 7560 c0 -13 7 -20 20 -20 23 0 26 10 8 28 -18 18 -28 15 -28
-8z"/>
<path d="M7195 7500 c3 -5 8 -10 11 -10 2 0 4 5 4 10 0 6 -5 10 -11 10 -5 0
-7 -4 -4 -10z"/>
<path d="M8150 4690 c-10 -6 -11 -10 -2 -10 6 0 12 -9 12 -20 0 -25 -37 -27
-43 -2 -4 15 -5 15 -6 0 -1 -12 -12 -18 -38 -20 -21 -2 44 -5 145 -5 146 -1
182 1 182 12 0 9 -18 15 -52 18 -29 3 -71 10 -93 16 -77 20 -90 21 -105 11z"/>
<path d="M8418 4633 c7 -3 16 -2 19 1 4 3 -2 6 -13 5 -11 0 -14 -3 -6 -6z"/>
<path d="M8483 4633 c15 -2 39 -2 55 0 15 2 2 4 -28 4 -30 0 -43 -2 -27 -4z"/>
<path d="M8591 4627 c2 -1 13 -9 24 -17 19 -14 19 -14 6 3 -7 9 -18 17 -24 17
-6 0 -8 -1 -6 -3z"/>
<path d="M8019 3873 c-13 -16 -12 -17 4 -4 9 7 17 15 17 17 0 8 -8 3 -21 -13z"/>
<path d="M3180 3619 c0 -5 5 -7 10 -4 6 3 10 8 10 11 0 2 -4 4 -10 4 -5 0 -10
-5 -10 -11z"/>
<path d="M3990 3231 c0 -5 5 -13 10 -16 6 -3 10 -2 10 4 0 5 -4 13 -10 16 -5
3 -10 2 -10 -4z"/>
<path d="M4037 3177 c13 -13 18 -15 25 -5 13 21 9 26 -16 24 -23 -1 -23 -2 -9
-19z"/>
<path d="M4361 2937 c2 -1 13 -9 24 -17 19 -14 19 -14 6 3 -7 9 -18 17 -24 17
-6 0 -8 -1 -6 -3z"/>
<path d="M4160 2570 c-19 -11 -68 -34 -107 -51 -40 -17 -73 -36 -73 -40 0 -5
-11 -9 -25 -9 -14 0 -53 -14 -86 -31 -61 -30 -76 -49 -24 -29 15 6 32 7 39 2
6 -5 48 -10 94 -11 77 -3 82 -2 82 18 0 12 6 21 16 21 26 0 46 28 42 60 -4 24
0 30 19 35 13 3 23 10 23 15 0 6 6 10 14 10 15 0 32 18 24 25 -2 2 -19 -5 -38
-15z m-110 -74 c0 -2 -7 -7 -16 -10 -8 -3 -12 -2 -9 4 6 10 25 14 25 6z"/>
<path d="M3840 2060 c0 -17 7 -20 40 -20 33 0 40 3 40 20 0 17 -7 20 -40 20
-33 0 -40 -3 -40 -20z"/>
<path d="M3760 2019 c0 -17 -5 -20 -25 -17 -31 6 -39 -5 -30 -40 4 -15 10 -21
12 -14 3 6 13 12 24 12 12 0 19 7 19 20 0 13 7 20 20 20 13 0 20 7 20 20 0 13
-7 20 -20 20 -14 0 -20 -7 -20 -21z"/>
<path d="M1600 1980 c0 -5 5 -10 10 -10 6 0 10 5 10 10 0 6 -4 10 -10 10 -5 0
-10 -4 -10 -10z"/>
<path d="M4168 1743 c6 -2 18 -2 25 0 6 3 1 5 -13 5 -14 0 -19 -2 -12 -5z"/>
<path d="M4080 1680 c0 -5 9 -10 20 -10 11 0 20 5 20 10 0 6 -9 10 -20 10 -11
0 -20 -4 -20 -10z"/>
<path d="M3800 1660 c0 -13 7 -20 20 -20 13 0 20 7 20 20 0 13 -7 20 -20 20
-13 0 -20 -7 -20 -20z"/>
<path d="M4355 1640 c-4 -6 9 -10 32 -10 28 0 34 3 23 10 -20 13 -47 13 -55 0z"/>
<path d="M4770 1596 c0 -9 5 -16 10 -16 6 0 10 4 10 9 0 6 -4 13 -10 16 -5 3
-10 -1 -10 -9z"/>
<path d="M5618 1063 c7 -3 16 -2 19 1 4 3 -2 6 -13 5 -11 0 -14 -3 -6 -6z"/>
<path d="M5370 950 c0 -5 5 -10 10 -10 6 0 10 5 10 10 0 6 -4 10 -10 10 -5 0
-10 -4 -10 -10z"/>
<path d="M3120 90 c0 -5 10 -10 23 -10 18 0 19 2 7 10 -19 13 -30 13 -30 0z"/>
</g>
</svg>
